<?xml version="1.0" standalone="no"?><!DOCTYPE svg PUBLIC "-//W3C//DTD SVG 1.1//EN" "http://www.w3.org/Graphics/SVG/1.1/DTD/svg11.dtd"><svg t="1697601024965" class="icon" viewBox="0 0 1024 1024" version="1.1" xmlns="http://www.w3.org/2000/svg" p-id="17717" xmlns:xlink="http://www.w3.org/1999/xlink" width="16" height="16"><path d="M110.6944 136.192m66.4064 0l227.6352 0q66.4064 0 66.4064 66.4064l0 227.6352q0 66.4064-66.4064 66.4064l-227.6352 0q-66.4064 0-66.4064-66.4064l0-227.6352q0-66.4064 66.4064-66.4064Z" fill="#000000" p-id="17718"></path><path d="M404.736 569.1904H177.1008a66.56 66.56 0 0 0-66.56 66.56v227.4816a66.56 66.56 0 0 0 66.56 66.56h227.6352a66.56 66.56 0 0 0 66.56-66.56v-227.6352a66.56 66.56 0 0 0-66.56-66.4064z" fill="#000000" p-id="17719"></path><path d="M839.68 569.1904h-227.6864a66.56 66.56 0 0 0-66.56 66.56v227.4816a66.56 66.56 0 0 0 66.56 66.56H839.68a66.56 66.56 0 0 0 66.56-66.56v-227.6352a66.2528 66.2528 0 0 0-66.56-66.4064z" fill="#000000" p-id="17720"></path><path d="M889.4464 269.4144L763.2896 143.36a66.1504 66.1504 0 0 0-93.9008 0L543.232 269.4144a66.56 66.56 0 0 0 0 93.9008l126.1568 126.208a67.7888 67.7888 0 0 0 46.9504 19.4048 66.9184 66.9184 0 0 0 46.9504-19.4048L889.4464 363.52a66.048 66.048 0 0 0 0-94.1056z" fill="#000000" p-id="17721"></path></svg>